<svg width="138" height="82" viewBox="0 0 138 82" fill="none" xmlns="http://www.w3.org/2000/svg">
<g filter="url(#filter0_d_163_6609)">
<path d="M6 9C6 6.79086 7.79086 5 10 5H128C130.209 5 132 6.79086 132 9V70C132 72.2091 130.209 74 128 74H24C14.0589 74 6 65.9411 6 56V9Z" fill="white"/>
<path d="M6 53H132V70C132 72.2091 130.209 74 128 74H27C15.402 74 6 64.598 6 53V53Z" fill="white"/>
<path d="M12 28H124V67H23C16.9249 67 12 62.0751 12 56V28Z" fill="#ECF0FE"/>
<path opacity="0.5" d="M28 12L29.1226 15.4549H32.7553L29.8164 17.5902L30.9389 21.0451L28 18.9098L25.0611 21.0451L26.1836 17.5902L23.2447 15.4549H26.8774L28 12Z" fill="#FFCC02"/>
<path opacity="0.5" d="M59.3281 11.9999L60.4507 15.4549H64.0834L61.1445 17.5901L62.2671 21.045L59.3281 18.9098L56.3892 21.045L57.5118 17.5901L54.5728 15.4549H58.2056L59.3281 11.9999Z" fill="#FFCC02"/>
<path d="M43.6635 10.4423L45.1595 15.0467H50.0008L46.0841 17.8923L47.5801 22.4966L43.6635 19.651L39.7468 22.4966L41.2428 17.8923L37.3261 15.0467H42.1674L43.6635 10.4423Z" fill="#FFCC02"/>
<path d="M24.3281 40H39.5589V44.4423H24.3281V40Z" fill="#BDCAF5"/>
<path d="M24 49.173H81V53.173H24V49.173Z" fill="#BDCAF5"/>
<path d="M95 28H118V64L106.5 56.8947L95 64V28Z" fill="#2ADEA1"/>
<path d="M106 37L108.158 42.0293L113.608 42.5279L109.492 46.1347L110.702 51.4721L106 48.672L101.298 51.4721L102.508 46.1347L98.3915 42.5279L103.842 42.0293L106 37Z" fill="white"/>
</g>
<defs>
<filter id="filter0_d_163_6609" x="0" y="0.72" width="138" height="81" filterUnits="userSpaceOnUse" color-interpolation-filters="sRGB">
<feFlood flood-opacity="0" result="BackgroundImageFix"/>
<feColorMatrix in="SourceAlpha" type="matrix" values="0 0 0 0 0 0 0 0 0 0 0 0 0 0 0 0 0 0 127 0" result="hardAlpha"/>
<feOffset dy="1.72"/>
<feGaussianBlur stdDeviation="3"/>
<feComposite in2="hardAlpha" operator="out"/>
<feColorMatrix type="matrix" values="0 0 0 0 0.262745 0 0 0 0 0.337255 0 0 0 0 0.627451 0 0 0 0.25 0"/>
<feBlend mode="normal" in2="BackgroundImageFix" result="effect1_dropShadow_163_6609"/>
<feBlend mode="normal" in="SourceGraphic" in2="effect1_dropShadow_163_6609" result="shape"/>
</filter>
</defs>
</svg>