<svg width="521" height="378" viewBox="0 0 521 378" fill="none" xmlns="http://www.w3.org/2000/svg">
<line x1="19" y1="376" x2="520" y2="376" stroke="#2A394E" stroke-width="2" stroke-linecap="round"/>
<rect x="120.066" width="222.773" height="377" rx="12.8523" fill="white"/>
<rect x="136.062" y="24.5625" width="190.784" height="310.739" rx="3.28409" fill="#F3F1FF" stroke="#2A394E" stroke-width="2"/>
<circle cx="231.456" cy="355.579" r="9.71023" fill="#F3F1FF" stroke="#2A394E" stroke-width="2"/>
<rect opacity="0.6" x="150.059" y="40.6989" width="160.653" height="79.2557" rx="4.28409" fill="#B8ABFF"/>
<rect x="166" y="59" width="83" height="6" rx="3" fill="#B8ABFF"/>
<rect x="166" y="71" width="37" height="6" rx="3" fill="#B8ABFF"/>
<rect x="208" y="71" width="22" height="6" rx="3" fill="#B8ABFF"/>
<rect opacity="0.6" x="150.059" y="137.091" width="160.653" height="79.2557" rx="4.28409" fill="#B8ABFF"/>
<rect x="161" y="154" width="83" height="6" rx="3" fill="#B8ABFF"/>
<rect x="142" y="197" width="116" height="6" rx="3" fill="#B8ABFF"/>
<rect x="161" y="166" width="37" height="6" rx="3" fill="#B8ABFF"/>
<rect x="203" y="166" width="22" height="6" rx="3" fill="#B8ABFF"/>
<rect opacity="0.5" x="150.059" y="233.483" width="160.653" height="79.2557" rx="4.28409" fill="#B8ABFF"/>
<rect x="161" y="249" width="83" height="6" rx="3" fill="#B8ABFF"/>
<rect x="203" y="282" width="59" height="6" rx="3" fill="#B8ABFF"/>
<rect x="161" y="261" width="25" height="6" rx="3" fill="#B8ABFF"/>
<rect x="161" y="282" width="32" height="6" rx="3" fill="#B8ABFF"/>
<rect x="42" y="4" width="32.2727" height="37.6841" rx="3.28409" fill="#58DA78" stroke="#2A394E" stroke-width="2"/>
<rect x="1" y="-1" width="32.2727" height="7.01912" rx="3.28409" transform="matrix(1 0 0 -1 41 42.4877)" fill="#EAF9EE" stroke="#2A394E" stroke-width="2"/>
<line x1="51.3477" y1="16.4307" x2="58.6947" y2="16.4307" stroke="#2A394E" stroke-width="2" stroke-linecap="round"/>
<line x1="51.3477" y1="23.6459" x2="66.484" y2="23.6459" stroke="#2A394E" stroke-width="2" stroke-linecap="round"/>
<circle cx="18.6596" cy="270.66" r="17.9096" fill="#FFE580" stroke="#2A394E" stroke-width="1.5"/>
<path d="M13.5626 265.632H25.4259" stroke="#2A394E" stroke-width="2" stroke-linecap="round"/>
<path d="M13 261L24.9421 261" stroke="#2A394E" stroke-width="2" stroke-linecap="round"/>
<path d="M14.1486 261L16.0979 261L18.7102 261C21.1025 261 22.6575 263.082 22.6575 265.861C22.6575 268.641 20.7182 270.895 18.326 270.895H14.635C14.3663 270.895 14.1486 271.148 14.1486 271.46C14.1486 271.615 14.2033 271.763 14.3001 271.87L22.2239 280.61" stroke="#2A394E" stroke-width="2" stroke-linecap="round"/>
<rect x="8" y="106" width="207" height="109" rx="3.28409" fill="#8D78FF" stroke="#2A394E" stroke-width="2"/>
<circle cx="111.989" cy="160.989" r="29.9886" fill="white"/>
<path d="M120.559 162.06L107.706 171.699L107.706 152.42L120.559 162.06Z" fill="#8870FF"/>
<rect x="24" y="334.282" width="68.0181" height="21.2504" rx="3.28409" fill="#FFE785" stroke="#2A394E" stroke-width="2"/>
<rect x="41.9805" y="313.245" width="68.0181" height="21.2504" rx="3.28409" fill="#FFE785" stroke="#2A394E" stroke-width="2"/>
<rect x="27.7383" y="293.077" width="68.0181" height="21.2504" rx="3.28409" fill="#FFE785" stroke="#2A394E" stroke-width="2"/>
<rect x="51.4375" y="272.791" width="68.0181" height="21.2504" rx="3.28409" fill="#FFE785" stroke="#2A394E" stroke-width="2"/>
<rect x="41.9805" y="355.317" width="68.0181" height="21.2504" rx="3.28409" fill="#FFE785" stroke="#2A394E" stroke-width="2"/>
<circle cx="83.4462" cy="234.075" r="37.0751" fill="#FFE785" stroke="#2A394E" stroke-width="2"/>
<path d="M72.9453 228.453H97.1524" stroke="#2A394E" stroke-width="2" stroke-linecap="round"/>
<path d="M72.7852 219L97.1532 219.001" stroke="#2A394E" stroke-width="2.14205" stroke-linecap="round"/>
<path d="M74.1328 219L78.1104 219.001L83.441 219C88.3223 219 91.4955 223.248 91.4955 228.92C91.4955 234.592 87.5383 239.191 82.657 239.191H75.1253C74.5772 239.191 74.1328 239.707 74.1328 240.344C74.1328 240.66 74.2446 240.963 74.442 241.18L90.6106 259.015" stroke="#2A394E" stroke-width="2" stroke-linecap="round"/>
<mask id="mask0_164_7082" style="mask-type:alpha" maskUnits="userSpaceOnUse" x="321" y="17" width="165" height="336">
<rect width="336" height="165" transform="matrix(0 -1 -1 0 486 353)" fill="#D9D9D9"/>
</mask>
<g mask="url(#mask0_164_7082)">
<circle opacity="0.5" cx="153.5" cy="153.5" r="153.5" transform="matrix(0 -1 -1 0 450 343)" fill="url(#paint0_linear_164_7082)"/>
<ellipse opacity="0.8" cx="95" cy="95.5" rx="95" ry="95.5" transform="matrix(0 -1 -1 0 392 284)" fill="url(#paint1_linear_164_7082)"/>
</g>
<mask id="path-42-inside-1_164_7082" fill="white">
<path fill-rule="evenodd" clip-rule="evenodd" d="M465.391 268.836C465.391 271.508 463.225 273.673 460.554 273.673L448.459 273.673V312.365H460.554C463.225 312.365 465.391 314.53 465.391 317.201C465.391 319.872 463.225 322.038 460.554 322.038H441.955C441.947 322.038 441.94 322.038 441.933 322.038H284.019C267.992 322.038 255 309.046 255 293.019C255 276.992 267.992 264 284.019 264H313.037H313.041H334.112H441.933L441.944 264L460.554 264C463.225 264 465.391 266.165 465.391 268.836Z"/>
</mask>
<path fill-rule="evenodd" clip-rule="evenodd" d="M465.391 268.836C465.391 271.508 463.225 273.673 460.554 273.673L448.459 273.673V312.365H460.554C463.225 312.365 465.391 314.53 465.391 317.201C465.391 319.872 463.225 322.038 460.554 322.038H441.955C441.947 322.038 441.94 322.038 441.933 322.038H284.019C267.992 322.038 255 309.046 255 293.019C255 276.992 267.992 264 284.019 264H313.037H313.041H334.112H441.933L441.944 264L460.554 264C463.225 264 465.391 266.165 465.391 268.836Z" fill="#FFDE5C"/>
<path d="M460.554 273.673V275.673V273.673ZM448.459 273.673V271.673H446.459V273.673H448.459ZM448.459 312.365H446.459V314.365H448.459V312.365ZM441.955 322.038V320.038L441.948 320.038L441.955 322.038ZM441.933 264L441.935 262H441.933V264ZM441.944 264L441.942 266H441.944V264ZM460.554 264V262V264ZM460.554 275.673C464.33 275.673 467.391 272.612 467.391 268.836H463.391C463.391 270.403 462.121 271.673 460.554 271.673V275.673ZM448.459 275.673L460.554 275.673V271.673L448.459 271.673V275.673ZM450.459 312.365V273.673H446.459V312.365H450.459ZM448.459 314.365H460.554V310.365H448.459V314.365ZM460.554 314.365C462.121 314.365 463.391 315.635 463.391 317.201H467.391C467.391 313.426 464.33 310.365 460.554 310.365V314.365ZM463.391 317.201C463.391 318.768 462.121 320.038 460.554 320.038V324.038C464.33 324.038 467.391 320.977 467.391 317.201H463.391ZM460.554 320.038H441.955V324.038H460.554V320.038ZM441.933 324.038C441.942 324.038 441.951 324.038 441.961 324.038L441.948 320.038C441.943 320.038 441.938 320.038 441.933 320.038V324.038ZM284.019 324.038H441.933V320.038H284.019V324.038ZM253 293.019C253 310.15 266.888 324.038 284.019 324.038V320.038C269.097 320.038 257 307.941 257 293.019H253ZM284.019 262C266.888 262 253 275.888 253 293.019H257C257 278.097 269.097 266 284.019 266V262ZM313.037 262H284.019V266H313.037V262ZM313.041 262H313.037V266H313.041V262ZM334.112 262H313.041V266H334.112V262ZM441.933 262H334.112V266H441.933V262ZM441.946 262L441.935 262L441.931 266L441.942 266L441.946 262ZM460.554 262L441.944 262V266L460.554 266V262ZM467.391 268.836C467.391 265.061 464.33 262 460.554 262V266C462.121 266 463.391 267.27 463.391 268.836H467.391Z" fill="#2A394E" mask="url(#path-42-inside-1_164_7082)"/>
<path d="M285.184 272.767H457.324C458.574 272.767 459.587 273.78 459.587 275.03V312.558C459.587 313.808 458.574 314.822 457.324 314.822H285.184C273.571 314.822 264.156 305.407 264.156 293.794C264.156 282.181 273.571 272.767 285.184 272.767Z" fill="#FFF9E5" stroke="#2A394E" stroke-width="2"/>
<path d="M300.688 303.768V272.767H326.794V303.768L313.741 296.757L300.688 303.768Z" fill="#FFE580" stroke="#2A394E" stroke-width="2"/>
<line x1="459.59" y1="289.083" x2="427.325" y2="289.083" stroke="#2A394E" stroke-width="2" stroke-linecap="round"/>
<path d="M277.844 275.398L277.844 312.927" stroke="#2A394E" stroke-width="2" stroke-linecap="round"/>
<mask id="path-48-inside-2_164_7082" fill="white">
<path fill-rule="evenodd" clip-rule="evenodd" d="M496.824 348.638C496.824 332.612 483.832 319.62 467.805 319.62H309.891L309.877 319.62L291.27 319.62C288.599 319.62 286.434 321.785 286.434 324.456C286.434 327.127 288.599 329.293 291.27 329.293L303.365 329.293V367.984H291.27C288.599 367.984 286.434 370.15 286.434 372.821C286.434 375.492 288.599 377.657 291.27 377.657H309.871C309.878 377.657 309.885 377.657 309.891 377.657H467.805C483.832 377.657 496.824 364.665 496.824 348.638Z"/>
</mask>
<path fill-rule="evenodd" clip-rule="evenodd" d="M496.824 348.638C496.824 332.612 483.832 319.62 467.805 319.62H309.891L309.877 319.62L291.27 319.62C288.599 319.62 286.434 321.785 286.434 324.456C286.434 327.127 288.599 329.293 291.27 329.293L303.365 329.293V367.984H291.27C288.599 367.984 286.434 370.15 286.434 372.821C286.434 375.492 288.599 377.657 291.27 377.657H309.871C309.878 377.657 309.885 377.657 309.891 377.657H467.805C483.832 377.657 496.824 364.665 496.824 348.638Z" fill="#FFDE5C"/>
<path d="M309.891 319.62L309.889 317.62H309.891V319.62ZM309.877 319.62L309.879 321.62H309.877V319.62ZM291.27 319.62V317.62V319.62ZM291.27 329.293V331.293V329.293ZM303.365 329.293V327.293H305.365V329.293H303.365ZM303.365 367.984H305.365V369.984H303.365V367.984ZM309.871 377.657V375.657L309.877 375.657L309.871 377.657ZM467.805 317.62C484.937 317.62 498.824 331.507 498.824 348.638H494.824C494.824 333.716 482.727 321.62 467.805 321.62V317.62ZM309.891 317.62H467.805V321.62H309.891V317.62ZM309.875 317.62L309.889 317.62L309.894 321.62L309.879 321.62L309.875 317.62ZM291.27 317.62L309.877 317.62V321.62L291.27 321.62V317.62ZM284.434 324.456C284.434 320.68 287.494 317.62 291.27 317.62V321.62C289.704 321.62 288.434 322.89 288.434 324.456H284.434ZM291.27 331.293C287.494 331.293 284.434 328.232 284.434 324.456H288.434C288.434 326.023 289.704 327.293 291.27 327.293V331.293ZM303.365 331.293L291.27 331.293V327.293L303.365 327.293V331.293ZM301.365 367.984V329.293H305.365V367.984H301.365ZM303.365 369.984H291.27V365.984H303.365V369.984ZM291.27 369.984C289.704 369.984 288.434 371.254 288.434 372.821H284.434C284.434 369.045 287.494 365.984 291.27 365.984V369.984ZM288.434 372.821C288.434 374.387 289.704 375.657 291.27 375.657V379.657C287.494 379.657 284.434 376.597 284.434 372.821H288.434ZM291.27 375.657H309.871V379.657H291.27V375.657ZM309.891 379.657C309.883 379.657 309.874 379.657 309.864 379.657L309.877 375.657C309.881 375.657 309.886 375.657 309.891 375.657V379.657ZM467.805 379.657H309.891V375.657H467.805V379.657ZM498.824 348.638C498.824 365.77 484.937 379.657 467.805 379.657V375.657C482.727 375.657 494.824 363.561 494.824 348.638H498.824Z" fill="#2A394E" mask="url(#path-48-inside-2_164_7082)"/>
<path d="M467.117 328.243H295.792C294.542 328.243 293.529 329.257 293.529 330.507V366.403C293.529 367.653 294.542 368.667 295.792 368.667H467.117C478.279 368.667 487.328 359.617 487.328 348.455C487.328 337.292 478.279 328.243 467.117 328.243Z" fill="#FFF9E5" stroke="#2A394E" stroke-width="2"/>
<line x1="1" y1="-1" x2="31.6333" y2="-1" transform="matrix(1 -8.74228e-08 -8.74228e-08 -1 292.527 353.35)" stroke="#2A394E" stroke-width="2" stroke-linecap="round"/>
<path d="M473.641 330.507L473.641 368.035" stroke="#2A394E" stroke-width="2" stroke-linecap="round"/>
<g filter="url(#filter0_d_164_7082)">
<circle cx="383" cy="55" r="21" fill="white"/>
</g>
<path d="M378.859 47.991L378.859 51.7246L376.814 51.7246C375.783 51.7246 374.947 50.8888 374.947 49.8578C374.947 48.8268 375.783 47.991 376.814 47.991L378.859 47.991Z" fill="#FFDE5C" stroke="#2A394E"/>
<path d="M388.414 47.991L388.414 51.7246L390.46 51.7246C391.491 51.7246 392.326 50.8888 392.326 49.8578C392.326 48.8268 391.491 47.991 390.46 47.991L388.414 47.991Z" fill="#FFDE5C" stroke="#2A394E"/>
<path d="M378.059 47.2415H389.503V52.5111C389.503 55.6714 386.941 58.2334 383.781 58.2334C380.621 58.2334 378.059 55.6714 378.059 52.5112V47.2415Z" fill="#FFDE5C" stroke="#2A394E"/>
<rect x="379.339" y="61.405" width="8.87465" height="0.381818" rx="0.190909" fill="#FFDE5C" stroke="#2A394E" stroke-width="0.381818"/>
<path d="M383.699 61.2042L383.699 58.5514C383.699 58.5141 383.729 58.4838 383.767 58.4838C383.804 58.4838 383.834 58.5141 383.834 58.5514L383.834 61.2042C383.834 61.2415 383.804 61.2717 383.767 61.2717C383.729 61.2717 383.699 61.2415 383.699 61.2042Z" fill="#FFDE5C" stroke="#2A394E"/>
<g opacity="0.9">
<g filter="url(#filter1_d_164_7082)">
<circle cx="459" cy="162" r="21" fill="white"/>
</g>
<rect x="453.277" y="154.722" width="12.2222" height="14.3099" rx="1.27593" fill="#A291FF" stroke="#2A394E"/>
<rect x="0.5" y="-0.5" width="12.2222" height="2.47953" rx="1.23977" transform="matrix(1 0 0 -1 452.777 169.228)" fill="#F3F1FF" stroke="#2A394E"/>
<line x1="456.887" y1="159.29" x2="459.493" y2="159.29" stroke="#2A394E" stroke-linecap="round"/>
<line x1="456.887" y1="162.073" x2="462.498" y2="162.073" stroke="#2A394E" stroke-linecap="round"/>
</g>
<g filter="url(#filter2_d_164_7082)">
<circle cx="433" cy="102" r="21" fill="white"/>
</g>
<path d="M427.148 95.0184C427.148 94.7103 427.398 94.4604 427.706 94.4604V94.4604C428.015 94.4604 428.264 94.7103 428.264 95.0184V114.263C428.264 114.571 428.015 114.821 427.706 114.821V114.821C427.398 114.821 427.148 114.571 427.148 114.263V95.0184Z" fill="#2A394E"/>
<mask id="path-66-inside-3_164_7082" fill="white">
<rect x="424.551" y="97.0454" width="6.54452" height="11.5617" rx="0.887967"/>
</mask>
<rect x="424.551" y="97.0454" width="6.54452" height="11.5617" rx="0.887967" fill="#58DA78" stroke="#2A394E" stroke-width="2" mask="url(#path-66-inside-3_164_7082)"/>
<rect x="438.262" y="89.6489" width="1.11593" height="20.3607" rx="0.557967" fill="#2A394E"/>
<mask id="path-68-inside-4_164_7082" fill="white">
<rect x="435.555" y="95.7984" width="6.54451" height="10.3816" rx="0.887967"/>
</mask>
<rect x="435.555" y="95.7984" width="6.54451" height="10.3816" rx="0.887967" fill="#FE7B72" stroke="#2A394E" stroke-width="2" mask="url(#path-68-inside-4_164_7082)"/>
<g opacity="0.9">
<g filter="url(#filter3_d_164_7082)">
<circle cx="456" cy="229" r="21" fill="white"/>
</g>
<circle cx="456.001" cy="229" r="8.05556" fill="#58DA78" stroke="#2A394E"/>
<path d="M458.907 229.085L454.172 225.959V232.314L458.907 229.085Z" fill="white" stroke="#2A394E"/>
</g>
<defs>
<filter id="filter0_d_164_7082" x="356.672" y="28.6722" width="59.7593" height="59.7593" filterUnits="userSpaceOnUse" color-interpolation-filters="sRGB">
<feFlood flood-opacity="0" result="BackgroundImageFix"/>
<feColorMatrix in="SourceAlpha" type="matrix" values="0 0 0 0 0 0 0 0 0 0 0 0 0 0 0 0 0 0 127 0" result="hardAlpha"/>
<feOffset dx="3.55187" dy="3.55187"/>
<feGaussianBlur stdDeviation="4.43983"/>
<feComposite in2="hardAlpha" operator="out"/>
<feColorMatrix type="matrix" values="0 0 0 0 0.470833 0 0 0 0 0.586775 0 0 0 0 1 0 0 0 0.04 0"/>
<feBlend mode="normal" in2="BackgroundImageFix" result="effect1_dropShadow_164_7082"/>
<feBlend mode="normal" in="SourceGraphic" in2="effect1_dropShadow_164_7082" result="shape"/>
</filter>
<filter id="filter1_d_164_7082" x="432.672" y="135.672" width="59.7593" height="59.7593" filterUnits="userSpaceOnUse" color-interpolation-filters="sRGB">
<feFlood flood-opacity="0" result="BackgroundImageFix"/>
<feColorMatrix in="SourceAlpha" type="matrix" values="0 0 0 0 0 0 0 0 0 0 0 0 0 0 0 0 0 0 127 0" result="hardAlpha"/>
<feOffset dx="3.55187" dy="3.55187"/>
<feGaussianBlur stdDeviation="4.43983"/>
<feComposite in2="hardAlpha" operator="out"/>
<feColorMatrix type="matrix" values="0 0 0 0 0.470833 0 0 0 0 0.586775 0 0 0 0 1 0 0 0 0.04 0"/>
<feBlend mode="normal" in2="BackgroundImageFix" result="effect1_dropShadow_164_7082"/>
<feBlend mode="normal" in="SourceGraphic" in2="effect1_dropShadow_164_7082" result="shape"/>
</filter>
<filter id="filter2_d_164_7082" x="406.672" y="75.6722" width="59.7593" height="59.7593" filterUnits="userSpaceOnUse" color-interpolation-filters="sRGB">
<feFlood flood-opacity="0" result="BackgroundImageFix"/>
<feColorMatrix in="SourceAlpha" type="matrix" values="0 0 0 0 0 0 0 0 0 0 0 0 0 0 0 0 0 0 127 0" result="hardAlpha"/>
<feOffset dx="3.55187" dy="3.55187"/>
<feGaussianBlur stdDeviation="4.43983"/>
<feComposite in2="hardAlpha" operator="out"/>
<feColorMatrix type="matrix" values="0 0 0 0 0.470833 0 0 0 0 0.586775 0 0 0 0 1 0 0 0 0.04 0"/>
<feBlend mode="normal" in2="BackgroundImageFix" result="effect1_dropShadow_164_7082"/>
<feBlend mode="normal" in="SourceGraphic" in2="effect1_dropShadow_164_7082" result="shape"/>
</filter>
<filter id="filter3_d_164_7082" x="429.672" y="202.672" width="59.7593" height="59.7593" filterUnits="userSpaceOnUse" color-interpolation-filters="sRGB">
<feFlood flood-opacity="0" result="BackgroundImageFix"/>
<feColorMatrix in="SourceAlpha" type="matrix" values="0 0 0 0 0 0 0 0 0 0 0 0 0 0 0 0 0 0 127 0" result="hardAlpha"/>
<feOffset dx="3.55187" dy="3.55187"/>
<feGaussianBlur stdDeviation="4.43983"/>
<feComposite in2="hardAlpha" operator="out"/>
<feColorMatrix type="matrix" values="0 0 0 0 0.470833 0 0 0 0 0.586775 0 0 0 0 1 0 0 0 0.04 0"/>
<feBlend mode="normal" in2="BackgroundImageFix" result="effect1_dropShadow_164_7082"/>
<feBlend mode="normal" in="SourceGraphic" in2="effect1_dropShadow_164_7082" result="shape"/>
</filter>
<linearGradient id="paint0_linear_164_7082" x1="153.5" y1="0" x2="153.5" y2="203.191" gradientUnits="userSpaceOnUse">
<stop stop-color="white"/>
<stop offset="1" stop-color="white" stop-opacity="0"/>
</linearGradient>
<linearGradient id="paint1_linear_164_7082" x1="95" y1="0" x2="95" y2="126.415" gradientUnits="userSpaceOnUse">
<stop stop-color="white"/>
<stop offset="1" stop-color="white" stop-opacity="0"/>
</linearGradient>
</defs>
</svg>