<svg width="463" height="387" viewBox="0 0 463 387" fill="none" xmlns="http://www.w3.org/2000/svg">
<circle cx="250.784" cy="197.611" r="188.611" transform="rotate(-180 250.784 197.611)" fill="url(#paint0_linear_172_7696)"/>
<g filter="url(#filter0_d_172_7696)">
<rect x="14" y="11.7269" width="234.514" height="231.787" rx="5.4538" fill="white"/>
<g clip-path="url(#clip0_172_7696)">
<rect x="28.5435" y="26.2704" width="205.427" height="202.7" rx="4.3994" fill="#ECF0FE"/>
<line x1="40.3638" y1="92.0997" x2="226.702" y2="94.163" stroke="#F4F4F5" stroke-width="0.667287"/>
<rect x="71.265" y="114.248" width="49.9932" height="9.08967" rx="4.54484" fill="#CFD9FC"/>
<rect x="71.265" y="164.242" width="49.9932" height="9.08967" rx="4.54484" fill="#CFD9FC"/>
<rect x="169.433" y="164.242" width="49.9932" height="9.08967" rx="4.54484" fill="#CFD9FC"/>
<rect x="167.615" y="114.44" width="49.9932" height="9.08967" rx="4.54484" fill="#CFD9FC"/>
<rect x="71.265" y="134.438" width="29.087" height="9.08967" rx="4.54484" fill="#CFD9FC"/>
<rect x="71.265" y="184.239" width="29.087" height="9.08967" rx="4.54484" fill="#CFD9FC"/>
<rect x="169.433" y="184.239" width="29.087" height="9.08967" rx="4.54484" fill="#CFD9FC"/>
<rect x="176.705" y="131.519" width="29.087" height="9.08967" rx="4.54484" fill="#ECF0FE"/>
<rect x="49.4497" y="48.9946" width="112.712" height="9.08967" rx="4.54484" fill="#8BA3F8"/>
<rect opacity="0.3" x="49.4497" y="67.174" width="59.0829" height="9.08967" rx="4.54484" fill="#8BA3F8"/>
<mask id="path-16-inside-1_172_7696" fill="white">
<rect x="49.4497" y="162.424" width="16.3614" height="16.3614" rx="1.81793"/>
</mask>
<rect x="49.4497" y="162.424" width="16.3614" height="16.3614" rx="1.81793" fill="#879EF5" stroke="#8BA3F8" stroke-width="7.27174" mask="url(#path-16-inside-1_172_7696)"/>
<mask id="path-17-inside-2_172_7696" fill="white">
<rect x="49.4497" y="110.804" width="16.3614" height="16.3614" rx="1.81793"/>
</mask>
<rect x="49.4497" y="110.804" width="16.3614" height="16.3614" rx="1.81793" fill="#879EF5" stroke="#8BA3F8" stroke-width="7.27174" mask="url(#path-17-inside-2_172_7696)"/>
<path d="M53.9946 119.44L56.7215 121.712L62.1753 116.258" stroke="white" stroke-width="2.7269" stroke-linecap="round"/>
<mask id="path-19-inside-3_172_7696" fill="white">
<rect x="145.8" y="110.804" width="16.3614" height="16.3614" rx="1.81793"/>
</mask>
<rect x="145.8" y="110.804" width="16.3614" height="16.3614" rx="1.81793" fill="#879EF5" stroke="#8BA3F8" stroke-width="7.27174" mask="url(#path-19-inside-3_172_7696)"/>
<mask id="path-20-inside-4_172_7696" fill="white">
<rect x="145.8" y="162.424" width="16.3614" height="16.3614" rx="1.81793"/>
</mask>
<rect x="145.8" y="162.424" width="16.3614" height="16.3614" rx="1.81793" fill="#879EF5" stroke="#8BA3F8" stroke-width="7.27174" mask="url(#path-20-inside-4_172_7696)"/>
</g>
</g>
<g filter="url(#filter1_d_172_7696)">
<path d="M191.249 133.529C191.249 129.513 194.504 126.257 198.52 126.257H447.577C451.593 126.257 454.849 129.513 454.849 133.529V360.77C454.849 364.786 451.593 368.042 447.577 368.042H198.52C194.504 368.042 191.249 364.786 191.249 360.77V133.529Z" fill="white"/>
</g>
<rect x="263.966" y="177.159" width="140.89" height="9.08967" rx="4.54484" fill="#EAF9EE"/>
<rect x="263.966" y="197.156" width="81.807" height="9.08967" rx="4.54484" fill="#EAF9EE"/>
<mask id="path-24-inside-5_172_7696" fill="white">
<rect x="242.151" y="173.523" width="16.3614" height="16.3614" rx="1.81793"/>
</mask>
<rect x="242.151" y="173.523" width="16.3614" height="16.3614" rx="1.81793" fill="#79E293" stroke="#79E293" stroke-width="7.27174" mask="url(#path-24-inside-5_172_7696)"/>
<path d="M246.696 182.158L249.423 184.431L254.876 178.977" stroke="white" stroke-width="2.7269" stroke-linecap="round"/>
<mask id="path-26-inside-6_172_7696" fill="white">
<path fill-rule="evenodd" clip-rule="evenodd" d="M319.924 160.082L316.59 161.619C316.272 161.766 315.898 161.726 315.619 161.513L312.693 159.295C312.471 159.127 312.188 159.064 311.916 159.123L308.33 159.907C307.988 159.982 307.632 159.862 307.404 159.594L305.023 156.797C304.843 156.586 304.579 156.464 304.301 156.463L300.631 156.456C300.28 156.456 299.958 156.262 299.793 155.952L298.068 152.707C297.938 152.462 297.706 152.286 297.435 152.225L293.852 151.429C293.51 151.353 293.237 151.094 293.142 150.756L292.154 147.216C292.079 146.948 291.891 146.726 291.639 146.609L288.311 145.059C287.993 144.911 287.782 144.6 287.762 144.249L287.557 140.58C287.541 140.302 287.405 140.045 287.185 139.876L284.267 137.646C283.988 137.433 283.849 137.084 283.905 136.737L284.492 133.109C284.537 132.834 284.459 132.554 284.279 132.341L281.908 129.536C281.682 129.267 281.621 128.896 281.75 128.57L283.103 125.153C283.205 124.894 283.189 124.604 283.059 124.358L281.346 121.107C281.183 120.796 281.203 120.421 281.399 120.13L283.453 117.084C283.609 116.853 283.656 116.566 283.582 116.298L282.607 112.754C282.513 112.416 282.614 112.053 282.868 111.811L285.528 109.279C285.729 109.087 285.837 108.817 285.822 108.539L285.63 104.868C285.612 104.518 285.788 104.185 286.088 104.004L289.23 102.103C289.467 101.959 289.63 101.718 289.676 101.444L290.276 97.8177C290.334 97.4712 290.577 97.1845 290.909 97.0717L294.385 95.8917C294.648 95.8023 294.859 95.6022 294.962 95.344L296.327 91.932C296.458 91.606 296.757 91.3783 297.105 91.3397L300.753 90.9356C301.029 90.905 301.278 90.755 301.435 90.525L303.5 87.4866C303.697 87.1963 304.038 87.0383 304.387 87.0756L308.037 87.4663C308.313 87.4958 308.588 87.4029 308.79 87.212L311.459 84.6892C311.714 84.4482 312.081 84.3673 312.414 84.4788L315.894 85.646C316.158 85.7343 316.447 85.7029 316.685 85.5599L319.833 83.6708C320.134 83.4903 320.51 83.4903 320.811 83.6708L323.959 85.5599C324.197 85.7029 324.486 85.7343 324.75 85.646L328.23 84.4788C328.562 84.3673 328.929 84.4482 329.184 84.6892L331.854 87.212C332.056 87.4029 332.331 87.4958 332.607 87.4663L336.257 87.0756C336.606 87.0383 336.946 87.1963 337.144 87.4866L339.209 90.525C339.365 90.755 339.614 90.905 339.891 90.9356L343.539 91.3397C343.887 91.3783 344.186 91.606 344.317 91.932L345.681 95.344C345.785 95.6022 345.996 95.8023 346.259 95.8917L349.735 97.0717C350.067 97.1845 350.31 97.4712 350.367 97.8177L350.968 101.444C351.013 101.718 351.176 101.959 351.414 102.103L354.556 104.004C354.856 104.185 355.032 104.518 355.013 104.868L354.822 108.539C354.807 108.817 354.915 109.087 355.116 109.279L357.776 111.811C358.03 112.053 358.13 112.416 358.037 112.754L357.062 116.298C356.988 116.566 357.035 116.853 357.191 117.084L359.245 120.13C359.441 120.421 359.461 120.796 359.298 121.107L357.584 124.358C357.455 124.604 357.439 124.894 357.541 125.153L358.894 128.57C359.023 128.896 358.962 129.267 358.735 129.536L356.365 132.341C356.185 132.554 356.107 132.834 356.152 133.109L356.739 136.737C356.795 137.084 356.656 137.433 356.377 137.646L353.459 139.876C353.238 140.045 353.102 140.302 353.087 140.58L352.881 144.249C352.862 144.6 352.651 144.911 352.333 145.059L349.005 146.609C348.753 146.726 348.565 146.948 348.49 147.216L347.501 150.756C347.407 151.094 347.134 151.353 346.792 151.429L343.209 152.225C342.938 152.286 342.706 152.462 342.576 152.707L340.851 155.952C340.686 156.262 340.364 156.456 340.013 156.456L336.343 156.463C336.065 156.464 335.801 156.586 335.621 156.797L333.24 159.594C333.012 159.862 332.656 159.982 332.314 159.907L328.728 159.123C328.456 159.064 328.173 159.127 327.951 159.295L325.025 161.513C324.745 161.726 324.372 161.766 324.053 161.619L320.72 160.082C320.467 159.966 320.177 159.966 319.924 160.082Z"/>
</mask>
<path fill-rule="evenodd" clip-rule="evenodd" d="M319.924 160.082L316.59 161.619C316.272 161.766 315.898 161.726 315.619 161.513L312.693 159.295C312.471 159.127 312.188 159.064 311.916 159.123L308.33 159.907C307.988 159.982 307.632 159.862 307.404 159.594L305.023 156.797C304.843 156.586 304.579 156.464 304.301 156.463L300.631 156.456C300.28 156.456 299.958 156.262 299.793 155.952L298.068 152.707C297.938 152.462 297.706 152.286 297.435 152.225L293.852 151.429C293.51 151.353 293.237 151.094 293.142 150.756L292.154 147.216C292.079 146.948 291.891 146.726 291.639 146.609L288.311 145.059C287.993 144.911 287.782 144.6 287.762 144.249L287.557 140.58C287.541 140.302 287.405 140.045 287.185 139.876L284.267 137.646C283.988 137.433 283.849 137.084 283.905 136.737L284.492 133.109C284.537 132.834 284.459 132.554 284.279 132.341L281.908 129.536C281.682 129.267 281.621 128.896 281.75 128.57L283.103 125.153C283.205 124.894 283.189 124.604 283.059 124.358L281.346 121.107C281.183 120.796 281.203 120.421 281.399 120.13L283.453 117.084C283.609 116.853 283.656 116.566 283.582 116.298L282.607 112.754C282.513 112.416 282.614 112.053 282.868 111.811L285.528 109.279C285.729 109.087 285.837 108.817 285.822 108.539L285.63 104.868C285.612 104.518 285.788 104.185 286.088 104.004L289.23 102.103C289.467 101.959 289.63 101.718 289.676 101.444L290.276 97.8177C290.334 97.4712 290.577 97.1845 290.909 97.0717L294.385 95.8917C294.648 95.8023 294.859 95.6022 294.962 95.344L296.327 91.932C296.458 91.606 296.757 91.3783 297.105 91.3397L300.753 90.9356C301.029 90.905 301.278 90.755 301.435 90.525L303.5 87.4866C303.697 87.1963 304.038 87.0383 304.387 87.0756L308.037 87.4663C308.313 87.4958 308.588 87.4029 308.79 87.212L311.459 84.6892C311.714 84.4482 312.081 84.3673 312.414 84.4788L315.894 85.646C316.158 85.7343 316.447 85.7029 316.685 85.5599L319.833 83.6708C320.134 83.4903 320.51 83.4903 320.811 83.6708L323.959 85.5599C324.197 85.7029 324.486 85.7343 324.75 85.646L328.23 84.4788C328.562 84.3673 328.929 84.4482 329.184 84.6892L331.854 87.212C332.056 87.4029 332.331 87.4958 332.607 87.4663L336.257 87.0756C336.606 87.0383 336.946 87.1963 337.144 87.4866L339.209 90.525C339.365 90.755 339.614 90.905 339.891 90.9356L343.539 91.3397C343.887 91.3783 344.186 91.606 344.317 91.932L345.681 95.344C345.785 95.6022 345.996 95.8023 346.259 95.8917L349.735 97.0717C350.067 97.1845 350.31 97.4712 350.367 97.8177L350.968 101.444C351.013 101.718 351.176 101.959 351.414 102.103L354.556 104.004C354.856 104.185 355.032 104.518 355.013 104.868L354.822 108.539C354.807 108.817 354.915 109.087 355.116 109.279L357.776 111.811C358.03 112.053 358.13 112.416 358.037 112.754L357.062 116.298C356.988 116.566 357.035 116.853 357.191 117.084L359.245 120.13C359.441 120.421 359.461 120.796 359.298 121.107L357.584 124.358C357.455 124.604 357.439 124.894 357.541 125.153L358.894 128.57C359.023 128.896 358.962 129.267 358.735 129.536L356.365 132.341C356.185 132.554 356.107 132.834 356.152 133.109L356.739 136.737C356.795 137.084 356.656 137.433 356.377 137.646L353.459 139.876C353.238 140.045 353.102 140.302 353.087 140.58L352.881 144.249C352.862 144.6 352.651 144.911 352.333 145.059L349.005 146.609C348.753 146.726 348.565 146.948 348.49 147.216L347.501 150.756C347.407 151.094 347.134 151.353 346.792 151.429L343.209 152.225C342.938 152.286 342.706 152.462 342.576 152.707L340.851 155.952C340.686 156.262 340.364 156.456 340.013 156.456L336.343 156.463C336.065 156.464 335.801 156.586 335.621 156.797L333.24 159.594C333.012 159.862 332.656 159.982 332.314 159.907L328.728 159.123C328.456 159.064 328.173 159.127 327.951 159.295L325.025 161.513C324.745 161.726 324.372 161.766 324.053 161.619L320.72 160.082C320.467 159.966 320.177 159.966 319.924 160.082Z" fill="#879EF5" stroke="#436AF5" stroke-width="1.81793" mask="url(#path-26-inside-6_172_7696)"/>
<mask id="path-27-inside-7_172_7696" fill="white">
<path fill-rule="evenodd" clip-rule="evenodd" d="M320.032 149.865L317.607 150.983C317.376 151.09 317.104 151.061 316.901 150.906L314.773 149.293C314.612 149.17 314.405 149.125 314.208 149.168L311.6 149.738C311.351 149.792 311.092 149.705 310.926 149.511L309.195 147.476C309.064 147.322 308.872 147.234 308.67 147.233L306 147.228C305.745 147.228 305.511 147.087 305.391 146.861L304.137 144.502C304.042 144.323 303.873 144.195 303.676 144.151L301.07 143.572C300.821 143.517 300.623 143.328 300.554 143.082L299.836 140.508C299.781 140.313 299.644 140.152 299.461 140.067L297.041 138.94C296.809 138.832 296.656 138.606 296.642 138.351L296.492 135.682C296.481 135.48 296.382 135.293 296.221 135.17L294.099 133.548C293.897 133.393 293.795 133.139 293.836 132.887L294.263 130.248C294.296 130.049 294.239 129.845 294.108 129.69L292.384 127.65C292.219 127.455 292.175 127.185 292.269 126.947L293.253 124.462C293.327 124.274 293.316 124.063 293.221 123.884L291.975 121.52C291.856 121.294 291.871 121.021 292.014 120.809L293.508 118.594C293.621 118.426 293.655 118.217 293.601 118.022L292.892 115.445C292.824 115.199 292.897 114.935 293.082 114.759L295.017 112.917C295.163 112.778 295.241 112.581 295.231 112.379L295.091 109.71C295.078 109.455 295.206 109.213 295.424 109.081L297.709 107.699C297.882 107.594 298 107.419 298.033 107.219L298.47 104.582C298.512 104.33 298.689 104.122 298.93 104.04L301.458 103.181C301.649 103.116 301.803 102.971 301.878 102.783L302.871 100.302C302.965 100.065 303.183 99.8989 303.436 99.8709L306.09 99.5769C306.29 99.5547 306.471 99.4456 306.585 99.2783L308.087 97.0686C308.231 96.8574 308.479 96.7426 308.732 96.7697L311.386 97.0538C311.587 97.0753 311.788 97.0078 311.935 96.8689L313.876 95.0342C314.061 94.8588 314.328 94.8 314.57 94.8811L317.101 95.73C317.293 95.7942 317.503 95.7714 317.676 95.6674L319.966 94.2935C320.185 94.1622 320.458 94.1622 320.677 94.2935L322.966 95.6674C323.14 95.7714 323.35 95.7942 323.541 95.73L326.073 94.8811C326.314 94.8 326.581 94.8588 326.767 95.0342L328.708 96.8689C328.855 97.0078 329.055 97.0753 329.256 97.0538L331.91 96.7697C332.164 96.7426 332.412 96.8574 332.555 97.0686L334.057 99.2783C334.171 99.4456 334.352 99.5547 334.553 99.5769L337.206 99.8709C337.46 99.8989 337.677 100.065 337.772 100.302L338.765 102.783C338.84 102.971 338.993 103.116 339.184 103.181L341.712 104.04C341.954 104.122 342.131 104.33 342.173 104.582L342.609 107.219C342.642 107.419 342.761 107.594 342.934 107.699L345.219 109.081C345.437 109.213 345.565 109.455 345.551 109.71L345.412 112.379C345.401 112.581 345.48 112.778 345.626 112.917L347.56 114.759C347.745 114.935 347.818 115.199 347.751 115.445L347.041 118.022C346.988 118.217 347.022 118.426 347.135 118.594L348.629 120.809C348.771 121.021 348.786 121.294 348.667 121.52L347.421 123.884C347.327 124.063 347.315 124.274 347.39 124.462L348.373 126.947C348.467 127.185 348.423 127.455 348.258 127.65L346.534 129.69C346.404 129.845 346.347 130.049 346.379 130.248L346.806 132.887C346.847 133.139 346.746 133.393 346.543 133.548L344.421 135.17C344.261 135.293 344.162 135.48 344.15 135.682L344.001 138.351C343.987 138.606 343.833 138.832 343.602 138.94L341.181 140.067C340.998 140.152 340.861 140.313 340.807 140.508L340.088 143.082C340.019 143.328 339.821 143.517 339.572 143.572L336.966 144.151C336.769 144.195 336.601 144.323 336.506 144.502L335.251 146.861C335.131 147.087 334.897 147.228 334.642 147.228L331.973 147.233C331.771 147.234 331.579 147.322 331.448 147.476L329.716 149.511C329.551 149.705 329.292 149.792 329.043 149.738L326.435 149.168C326.237 149.125 326.031 149.17 325.87 149.293L323.742 150.906C323.538 151.061 323.267 151.09 323.035 150.983L320.61 149.865C320.427 149.781 320.216 149.781 320.032 149.865Z"/>
</mask>
<path fill-rule="evenodd" clip-rule="evenodd" d="M320.032 149.865L317.607 150.983C317.376 151.09 317.104 151.061 316.901 150.906L314.773 149.293C314.612 149.17 314.405 149.125 314.208 149.168L311.6 149.738C311.351 149.792 311.092 149.705 310.926 149.511L309.195 147.476C309.064 147.322 308.872 147.234 308.67 147.233L306 147.228C305.745 147.228 305.511 147.087 305.391 146.861L304.137 144.502C304.042 144.323 303.873 144.195 303.676 144.151L301.07 143.572C300.821 143.517 300.623 143.328 300.554 143.082L299.836 140.508C299.781 140.313 299.644 140.152 299.461 140.067L297.041 138.94C296.809 138.832 296.656 138.606 296.642 138.351L296.492 135.682C296.481 135.48 296.382 135.293 296.221 135.17L294.099 133.548C293.897 133.393 293.795 133.139 293.836 132.887L294.263 130.248C294.296 130.049 294.239 129.845 294.108 129.69L292.384 127.65C292.219 127.455 292.175 127.185 292.269 126.947L293.253 124.462C293.327 124.274 293.316 124.063 293.221 123.884L291.975 121.52C291.856 121.294 291.871 121.021 292.014 120.809L293.508 118.594C293.621 118.426 293.655 118.217 293.601 118.022L292.892 115.445C292.824 115.199 292.897 114.935 293.082 114.759L295.017 112.917C295.163 112.778 295.241 112.581 295.231 112.379L295.091 109.71C295.078 109.455 295.206 109.213 295.424 109.081L297.709 107.699C297.882 107.594 298 107.419 298.033 107.219L298.47 104.582C298.512 104.33 298.689 104.122 298.93 104.04L301.458 103.181C301.649 103.116 301.803 102.971 301.878 102.783L302.871 100.302C302.965 100.065 303.183 99.8989 303.436 99.8709L306.09 99.5769C306.29 99.5547 306.471 99.4456 306.585 99.2783L308.087 97.0686C308.231 96.8574 308.479 96.7426 308.732 96.7697L311.386 97.0538C311.587 97.0753 311.788 97.0078 311.935 96.8689L313.876 95.0342C314.061 94.8588 314.328 94.8 314.57 94.8811L317.101 95.73C317.293 95.7942 317.503 95.7714 317.676 95.6674L319.966 94.2935C320.185 94.1622 320.458 94.1622 320.677 94.2935L322.966 95.6674C323.14 95.7714 323.35 95.7942 323.541 95.73L326.073 94.8811C326.314 94.8 326.581 94.8588 326.767 95.0342L328.708 96.8689C328.855 97.0078 329.055 97.0753 329.256 97.0538L331.91 96.7697C332.164 96.7426 332.412 96.8574 332.555 97.0686L334.057 99.2783C334.171 99.4456 334.352 99.5547 334.553 99.5769L337.206 99.8709C337.46 99.8989 337.677 100.065 337.772 100.302L338.765 102.783C338.84 102.971 338.993 103.116 339.184 103.181L341.712 104.04C341.954 104.122 342.131 104.33 342.173 104.582L342.609 107.219C342.642 107.419 342.761 107.594 342.934 107.699L345.219 109.081C345.437 109.213 345.565 109.455 345.551 109.71L345.412 112.379C345.401 112.581 345.48 112.778 345.626 112.917L347.56 114.759C347.745 114.935 347.818 115.199 347.751 115.445L347.041 118.022C346.988 118.217 347.022 118.426 347.135 118.594L348.629 120.809C348.771 121.021 348.786 121.294 348.667 121.52L347.421 123.884C347.327 124.063 347.315 124.274 347.39 124.462L348.373 126.947C348.467 127.185 348.423 127.455 348.258 127.65L346.534 129.69C346.404 129.845 346.347 130.049 346.379 130.248L346.806 132.887C346.847 133.139 346.746 133.393 346.543 133.548L344.421 135.17C344.261 135.293 344.162 135.48 344.15 135.682L344.001 138.351C343.987 138.606 343.833 138.832 343.602 138.94L341.181 140.067C340.998 140.152 340.861 140.313 340.807 140.508L340.088 143.082C340.019 143.328 339.821 143.517 339.572 143.572L336.966 144.151C336.769 144.195 336.601 144.323 336.506 144.502L335.251 146.861C335.131 147.087 334.897 147.228 334.642 147.228L331.973 147.233C331.771 147.234 331.579 147.322 331.448 147.476L329.716 149.511C329.551 149.705 329.292 149.792 329.043 149.738L326.435 149.168C326.237 149.125 326.031 149.17 325.87 149.293L323.742 150.906C323.538 151.061 323.267 151.09 323.035 150.983L320.61 149.865C320.427 149.781 320.216 149.781 320.032 149.865Z" fill="#ECF0FE" stroke="#436AF5" stroke-width="1.81793" mask="url(#path-27-inside-7_172_7696)"/>
<circle cx="320.323" cy="122.621" r="22.7999" fill="white"/>
<path d="M329.763 131.346L316.572 113.359L311.776 113.359L324.966 131.346H329.763Z" fill="#436AF5"/>
<path d="M319.186 131.346H311.775L315.482 125.77L319.186 131.346Z" fill="#A1B4FA"/>
<path d="M329.739 113.359L322.328 113.359L326.035 118.935L329.739 113.359Z" fill="#A1B4FA"/>
<rect x="213.064" y="231.697" width="219.97" height="113.621" rx="7.27174" fill="#EAF9EE"/>
<path d="M295.664 258.131L292.319 264.574V268.239H290.661V264.574L287.301 258.131H289.148L291.49 263.091L293.831 258.131H295.664ZM300.456 268.37C299.699 268.37 299.016 268.2 298.405 267.861C297.794 267.512 297.314 267.027 296.965 266.407C296.616 265.776 296.442 265.049 296.442 264.225C296.442 263.411 296.621 262.688 296.98 262.058C297.338 261.428 297.828 260.943 298.449 260.604C299.069 260.264 299.762 260.095 300.528 260.095C301.294 260.095 301.987 260.264 302.608 260.604C303.229 260.943 303.718 261.428 304.077 262.058C304.436 262.688 304.615 263.411 304.615 264.225C304.615 265.04 304.431 265.762 304.062 266.392C303.694 267.022 303.19 267.512 302.55 267.861C301.92 268.2 301.222 268.37 300.456 268.37ZM300.456 266.93C300.882 266.93 301.28 266.828 301.648 266.625C302.026 266.421 302.332 266.116 302.564 265.709C302.797 265.301 302.913 264.807 302.913 264.225C302.913 263.643 302.802 263.154 302.579 262.756C302.356 262.349 302.06 262.044 301.692 261.84C301.323 261.636 300.926 261.535 300.499 261.535C300.073 261.535 299.675 261.636 299.307 261.84C298.948 262.044 298.662 262.349 298.449 262.756C298.235 263.154 298.129 263.643 298.129 264.225C298.129 265.088 298.347 265.757 298.783 266.232C299.229 266.698 299.787 266.93 300.456 266.93ZM313.511 260.226V268.239H311.853V267.294C311.591 267.623 311.247 267.885 310.821 268.079C310.404 268.263 309.958 268.355 309.483 268.355C308.852 268.355 308.285 268.225 307.781 267.963C307.287 267.701 306.894 267.313 306.603 266.799C306.322 266.285 306.181 265.665 306.181 264.938V260.226H307.825V264.691C307.825 265.408 308.004 265.961 308.363 266.348C308.722 266.727 309.211 266.916 309.832 266.916C310.452 266.916 310.942 266.727 311.301 266.348C311.669 265.961 311.853 265.408 311.853 264.691V260.226H313.511ZM317.357 261.389C317.599 260.982 317.919 260.667 318.317 260.444C318.724 260.211 319.204 260.095 319.756 260.095V261.811H319.335C318.685 261.811 318.19 261.976 317.851 262.305C317.521 262.635 317.357 263.207 317.357 264.022V268.239H315.699V260.226H317.357V261.389ZM328.389 268.341C327.71 268.341 327.099 268.225 326.556 267.992C326.013 267.75 325.587 267.41 325.276 266.974C324.966 266.538 324.811 266.029 324.811 265.447H326.585C326.624 265.883 326.794 266.242 327.094 266.523C327.405 266.804 327.836 266.945 328.389 266.945C328.961 266.945 329.407 266.809 329.727 266.538C330.047 266.256 330.207 265.898 330.207 265.461C330.207 265.122 330.105 264.846 329.901 264.632C329.707 264.419 329.46 264.254 329.159 264.138C328.869 264.022 328.461 263.895 327.938 263.76C327.279 263.585 326.74 263.411 326.324 263.236C325.916 263.052 325.567 262.771 325.276 262.393C324.986 262.015 324.84 261.51 324.84 260.88C324.84 260.298 324.986 259.789 325.276 259.353C325.567 258.917 325.974 258.582 326.498 258.35C327.022 258.117 327.628 258.001 328.316 258.001C329.295 258.001 330.095 258.248 330.716 258.742C331.346 259.227 331.695 259.896 331.763 260.749H329.93C329.901 260.381 329.727 260.066 329.407 259.804C329.087 259.542 328.665 259.411 328.141 259.411C327.666 259.411 327.279 259.532 326.978 259.775C326.677 260.017 326.527 260.366 326.527 260.822C326.527 261.132 326.619 261.389 326.803 261.593C326.997 261.787 327.24 261.942 327.531 262.058C327.821 262.175 328.219 262.301 328.723 262.436C329.392 262.621 329.935 262.805 330.352 262.989C330.779 263.173 331.137 263.459 331.428 263.847C331.729 264.225 331.879 264.734 331.879 265.374C331.879 265.888 331.739 266.373 331.457 266.828C331.186 267.284 330.784 267.653 330.25 267.934C329.727 268.205 329.106 268.341 328.389 268.341ZM333.283 264.225C333.283 263.401 333.448 262.679 333.777 262.058C334.117 261.428 334.582 260.943 335.173 260.604C335.765 260.264 336.444 260.095 337.21 260.095C338.179 260.095 338.979 260.327 339.609 260.793C340.249 261.249 340.681 261.903 340.904 262.756H339.115C338.969 262.359 338.737 262.048 338.417 261.825C338.097 261.602 337.694 261.491 337.21 261.491C336.531 261.491 335.988 261.733 335.581 262.218C335.183 262.693 334.984 263.362 334.984 264.225C334.984 265.088 335.183 265.762 335.581 266.247C335.988 266.731 336.531 266.974 337.21 266.974C338.169 266.974 338.804 266.552 339.115 265.709H340.904C340.671 266.523 340.235 267.173 339.595 267.657C338.955 268.132 338.16 268.37 337.21 268.37C336.444 268.37 335.765 268.2 335.173 267.861C334.582 267.512 334.117 267.027 333.777 266.407C333.448 265.776 333.283 265.049 333.283 264.225ZM346.032 268.37C345.275 268.37 344.592 268.2 343.981 267.861C343.37 267.512 342.89 267.027 342.541 266.407C342.192 265.776 342.018 265.049 342.018 264.225C342.018 263.411 342.197 262.688 342.556 262.058C342.915 261.428 343.404 260.943 344.025 260.604C344.645 260.264 345.339 260.095 346.104 260.095C346.87 260.095 347.564 260.264 348.184 260.604C348.805 260.943 349.294 261.428 349.653 262.058C350.012 262.688 350.191 263.411 350.191 264.225C350.191 265.04 350.007 265.762 349.639 266.392C349.27 267.022 348.766 267.512 348.126 267.861C347.496 268.2 346.798 268.37 346.032 268.37ZM346.032 266.93C346.458 266.93 346.856 266.828 347.224 266.625C347.602 266.421 347.908 266.116 348.141 265.709C348.373 265.301 348.49 264.807 348.49 264.225C348.49 263.643 348.378 263.154 348.155 262.756C347.932 262.349 347.636 262.044 347.268 261.84C346.9 261.636 346.502 261.535 346.075 261.535C345.649 261.535 345.251 261.636 344.883 261.84C344.524 262.044 344.238 262.349 344.025 262.756C343.811 263.154 343.705 263.643 343.705 264.225C343.705 265.088 343.923 265.757 344.359 266.232C344.805 266.698 345.363 266.93 346.032 266.93ZM353.488 261.389C353.731 260.982 354.05 260.667 354.448 260.444C354.855 260.211 355.335 260.095 355.888 260.095V261.811H355.466C354.816 261.811 354.322 261.976 353.983 262.305C353.653 262.635 353.488 263.207 353.488 264.022V268.239H351.83V260.226H353.488V261.389ZM364.756 264.036C364.756 264.337 364.737 264.608 364.698 264.851H358.575C358.624 265.49 358.861 266.004 359.288 266.392C359.715 266.78 360.238 266.974 360.859 266.974C361.751 266.974 362.381 266.601 362.749 265.854H364.538C364.296 266.591 363.855 267.197 363.215 267.672C362.584 268.137 361.799 268.37 360.859 268.37C360.093 268.37 359.404 268.2 358.793 267.861C358.192 267.512 357.717 267.027 357.368 266.407C357.029 265.776 356.859 265.049 356.859 264.225C356.859 263.401 357.024 262.679 357.354 262.058C357.693 261.428 358.163 260.943 358.764 260.604C359.375 260.264 360.073 260.095 360.859 260.095C361.615 260.095 362.289 260.26 362.88 260.589C363.472 260.919 363.932 261.384 364.262 261.985C364.591 262.577 364.756 263.26 364.756 264.036ZM363.026 263.513C363.016 262.902 362.798 262.412 362.371 262.044C361.945 261.675 361.416 261.491 360.786 261.491C360.214 261.491 359.724 261.675 359.317 262.044C358.91 262.402 358.667 262.892 358.59 263.513H363.026Z" fill="#747E8B"/>
<path d="M285.892 298.953C283.158 297.498 281.791 295.215 281.791 292.103C281.791 290.532 282.198 289.107 283.013 287.827C283.827 286.518 285.064 285.485 286.721 284.729C288.379 283.944 290.415 283.551 292.83 283.551C295.244 283.551 297.265 283.944 298.894 284.729C300.552 285.485 301.788 286.518 302.603 287.827C303.417 289.107 303.825 290.532 303.825 292.103C303.825 293.673 303.446 295.04 302.69 296.204C301.963 297.367 300.974 298.284 299.723 298.953C301.294 299.709 302.501 300.756 303.345 302.094C304.188 303.403 304.61 304.945 304.61 306.719C304.61 308.784 304.086 310.573 303.039 312.085C301.992 313.569 300.567 314.703 298.763 315.489C296.989 316.274 295.011 316.667 292.83 316.667C290.648 316.667 288.656 316.274 286.852 315.489C285.078 314.703 283.667 313.569 282.62 312.085C281.573 310.573 281.05 308.784 281.05 306.719C281.05 304.915 281.471 303.359 282.315 302.05C283.158 300.712 284.351 299.68 285.892 298.953ZM296.582 293.237C296.582 292.044 296.233 291.128 295.535 290.488C294.866 289.819 293.964 289.485 292.83 289.485C291.695 289.485 290.779 289.819 290.081 290.488C289.412 291.157 289.077 292.088 289.077 293.281C289.077 294.415 289.427 295.317 290.125 295.986C290.823 296.626 291.724 296.946 292.83 296.946C293.935 296.946 294.837 296.611 295.535 295.942C296.233 295.273 296.582 294.371 296.582 293.237ZM292.83 302.181C291.463 302.181 290.357 302.559 289.514 303.316C288.67 304.043 288.249 305.061 288.249 306.37C288.249 307.591 288.656 308.595 289.47 309.38C290.314 310.166 291.434 310.558 292.83 310.558C294.226 310.558 295.317 310.166 296.102 309.38C296.916 308.595 297.324 307.591 297.324 306.37C297.324 305.09 296.902 304.072 296.058 303.316C295.244 302.559 294.168 302.181 292.83 302.181ZM331.374 290.706H317.762V296.727C318.344 296.088 319.158 295.564 320.205 295.157C321.252 294.75 322.387 294.546 323.608 294.546C325.79 294.546 327.593 295.04 329.018 296.029C330.473 297.018 331.534 298.298 332.203 299.869C332.872 301.44 333.207 303.141 333.207 304.974C333.207 308.377 332.247 311.082 330.327 313.089C328.408 315.067 325.703 316.056 322.212 316.056C319.885 316.056 317.864 315.663 316.147 314.878C314.431 314.063 313.108 312.943 312.177 311.518C311.246 310.093 310.737 308.449 310.65 306.588H317.936C318.111 307.49 318.533 308.246 319.202 308.857C319.871 309.438 320.787 309.729 321.95 309.729C323.317 309.729 324.335 309.293 325.004 308.42C325.673 307.548 326.008 306.384 326.008 304.93C326.008 303.505 325.659 302.414 324.961 301.658C324.263 300.901 323.245 300.523 321.907 300.523C320.918 300.523 320.103 300.771 319.463 301.265C318.823 301.73 318.402 302.356 318.198 303.141H310.999V284.162H331.374V290.706ZM336.714 292.234C336.714 289.877 337.383 288.06 338.721 286.78C340.089 285.5 341.848 284.86 344.001 284.86C346.153 284.86 347.898 285.5 349.236 286.78C350.574 288.06 351.243 289.877 351.243 292.234C351.243 294.59 350.574 296.407 349.236 297.687C347.898 298.967 346.153 299.607 344.001 299.607C341.848 299.607 340.089 298.967 338.721 297.687C337.383 296.407 336.714 294.59 336.714 292.234ZM366.339 285.34L349.542 316.056H342.343L359.14 285.34H366.339ZM343.957 289.223C342.561 289.223 341.863 290.227 341.863 292.234C341.863 294.211 342.561 295.2 343.957 295.2C344.626 295.2 345.15 294.953 345.528 294.459C345.906 293.964 346.095 293.222 346.095 292.234C346.095 290.227 345.382 289.223 343.957 289.223ZM357.483 309.162C357.483 306.806 358.152 304.988 359.49 303.708C360.828 302.428 362.573 301.789 364.725 301.789C366.878 301.789 368.623 302.428 369.961 303.708C371.299 304.988 371.968 306.806 371.968 309.162C371.968 311.518 371.299 313.336 369.961 314.616C368.623 315.896 366.878 316.536 364.725 316.536C362.573 316.536 360.828 315.896 359.49 314.616C358.152 313.336 357.483 311.518 357.483 309.162ZM364.682 306.152C364.013 306.152 363.489 306.399 363.111 306.893C362.762 307.388 362.587 308.144 362.587 309.162C362.587 311.14 363.285 312.129 364.682 312.129C365.351 312.129 365.874 311.882 366.252 311.387C366.63 310.893 366.819 310.151 366.819 309.162C366.819 308.173 366.63 307.431 366.252 306.937C365.874 306.413 365.351 306.152 364.682 306.152Z" fill="#218038"/>
<defs>
<filter id="filter0_d_172_7696" x="-0.543475" y="0.819322" width="263.601" height="260.874" filterUnits="userSpaceOnUse" color-interpolation-filters="sRGB">
<feFlood flood-opacity="0" result="BackgroundImageFix"/>
<feColorMatrix in="SourceAlpha" type="matrix" values="0 0 0 0 0 0 0 0 0 0 0 0 0 0 0 0 0 0 127 0" result="hardAlpha"/>
<feOffset dy="3.63587"/>
<feGaussianBlur stdDeviation="7.27174"/>
<feComposite in2="hardAlpha" operator="out"/>
<feColorMatrix type="matrix" values="0 0 0 0 0.262745 0 0 0 0 0.337255 0 0 0 0 0.627451 0 0 0 0.16 0"/>
<feBlend mode="normal" in2="BackgroundImageFix" result="effect1_dropShadow_172_7696"/>
<feBlend mode="normal" in="SourceGraphic" in2="effect1_dropShadow_172_7696" result="shape"/>
</filter>
<filter id="filter1_d_172_7696" x="183.977" y="122.621" width="278.144" height="256.329" filterUnits="userSpaceOnUse" color-interpolation-filters="sRGB">
<feFlood flood-opacity="0" result="BackgroundImageFix"/>
<feColorMatrix in="SourceAlpha" type="matrix" values="0 0 0 0 0 0 0 0 0 0 0 0 0 0 0 0 0 0 127 0" result="hardAlpha"/>
<feOffset dy="3.63587"/>
<feGaussianBlur stdDeviation="3.63587"/>
<feComposite in2="hardAlpha" operator="out"/>
<feColorMatrix type="matrix" values="0 0 0 0 0.909804 0 0 0 0 0.929412 0 0 0 0 1 0 0 0 0.55 0"/>
<feBlend mode="normal" in2="BackgroundImageFix" result="effect1_dropShadow_172_7696"/>
<feBlend mode="normal" in="SourceGraphic" in2="effect1_dropShadow_172_7696" result="shape"/>
</filter>
<linearGradient id="paint0_linear_172_7696" x1="166.569" y1="-9.77853" x2="250.784" y2="386.221" gradientUnits="userSpaceOnUse">
<stop stop-color="#FFE1E4"/>
<stop offset="1" stop-color="#FDFDFF"/>
</linearGradient>
<clipPath id="clip0_172_7696">
<rect x="28.5435" y="26.2704" width="205.427" height="202.7" rx="3.63587" fill="white"/>
</clipPath>
</defs>
</svg>